<svg xmlns="http://www.w3.org/2000/svg" xmlns:xlink="http://www.w3.org/1999/xlink" width="300" zoomAndPan="magnify" viewBox="0 0 224.87999 74.999997" height="100" preserveAspectRatio="xMidYMid meet" version="1.0"><defs><g/></defs><g fill="#000000" fill-opacity="1"><g transform="translate(26.173027, 60.826078)"><g><path d="M 27.1875 -49.375 L 40.578125 -49.375 L 27.75 -25.125 L 40.984375 -0.15625 L 27.578125 -0.15625 L 21 -12.4375 L 14.5 -0.15625 L 1.109375 -0.15625 L 14.34375 -25.125 L 1.5 -49.375 L 14.90625 -49.375 L 21 -37.734375 Z M 27.1875 -49.375 "/></g></g></g><g fill="#000000" fill-opacity="1"><g transform="translate(68.263956, 60.826078)"><g><path d="M 1.578125 -49.46875 L 40.828125 -49.46875 L 36.9375 -38.84375 L 15.0625 -38.84375 L 15.0625 -29.796875 L 36.9375 -29.796875 L 36.9375 -19.421875 L 15.0625 -19.421875 L 15.0625 -10.703125 L 40.828125 -10.78125 L 37.015625 0 L 1.578125 0 Z M 1.578125 -49.46875 "/></g></g></g><g fill="#000000" fill-opacity="1"><g transform="translate(110.592687, 60.826078)"><g><path d="M 40.5 0 L 27.109375 0 L 27.109375 -0.234375 L 26.875 -0.234375 L 26.875 -39.078125 L 14.90625 -39.078125 L 14.75 0 L 1.34375 0 L 1.34375 -49.46875 L 40.578125 -49.46875 Z M 40.5 0 "/></g></g></g><g fill="#000000" fill-opacity="1"><g transform="translate(152.525083, 60.826078)"><g><path d="M 8.40625 0.078125 C 4.488281 0.078125 2.132812 -1.585938 1.34375 -4.921875 C 1.394531 -11.835938 1.421875 -18.46875 1.421875 -24.8125 C 1.421875 -31.15625 1.394531 -37.46875 1.34375 -43.75 C 1.769531 -45.8125 2.5625 -47.289062 3.71875 -48.1875 C 4.882812 -49.09375 6.445312 -49.546875 8.40625 -49.546875 L 33.765625 -49.546875 C 35.722656 -49.546875 37.28125 -49.09375 38.4375 -48.1875 C 39.601562 -47.289062 40.398438 -45.8125 40.828125 -43.75 C 40.773438 -37.46875 40.75 -31.15625 40.75 -24.8125 C 40.75 -18.46875 40.773438 -11.835938 40.828125 -4.921875 C 40.023438 -1.585938 37.671875 0.078125 33.765625 0.078125 Z M 15.53125 -10.78125 L 26.640625 -10.78125 L 26.640625 -38.84375 L 15.53125 -38.84375 Z M 15.53125 -10.78125 "/></g></g></g></svg>